<svg width="224" height="217" xmlns="http://www.w3.org/2000/svg">
 <!-- Created with Method Draw - http://github.com/duopixel/Method-Draw/ -->
 <g>
  <title>background</title>
  <rect fill="#fff" id="canvas_background" height="602" width="802" y="-1" x="-1"/>
 </g>
 <g>
  <title>Layer 1</title>
  <path stroke="#000" id="svg_1" d="m12.82321,178.28308c12.36709,-0.08376 24.73418,-0.16753 37.10127,-0.25128c0.08143,-13.2484 0.16284,-26.49681 0.24426,-39.7452c12.30801,0 24.61602,0 36.92404,0c0,-13.32969 0,-26.65937 0,-39.98905c12.6232,0 25.24638,0 37.86958,0c0,-13.00457 0,-26.00913 0,-39.0137c12.46734,0 24.93469,0 37.40205,0c0,-13.00456 0,-26.00913 0,-39.0137c18.54519,0 37.09037,0 55.63556,0c0,6.50228 0,13.00457 0,19.50685c-12.31153,0 -24.62301,0 -36.93455,0c0,13.16712 0,26.33425 0,39.50138c-12.46734,0 -24.93468,0 -37.40205,0c0,13.16713 0,26.33425 0,39.50138c-12.46736,0 -24.93469,0 -37.40205,0c0,13.16712 0,26.33425 0,39.50136c-12.6232,0 -25.24639,0 -37.86958,0c0,13.32969 0,26.65937 0,39.98904c-18.70103,0 -37.40205,0 -56.10308,0c0.8337,-6.46164 -1.42126,-13.74785 0.53454,-19.98706l0,-0.00001z" fill-opacity="null" stroke-opacity="null" stroke-width="1.5" fill="#fff"/>
 </g>
</svg>