<svg width="224" height="217" xmlns="http://www.w3.org/2000/svg">
 <!-- Created with Method Draw - http://github.com/duopixel/Method-Draw/ -->
 <g>
  <title>background</title>
  <rect fill="#fff" id="canvas_background" height="602" width="802" y="-1" x="-1"/>
 </g>
 <g>
  <title>Layer 1</title>
  <path stroke="#000" id="svg_2" d="m159.21936,286.66082l-18.76315,-0.49129c-4.734,-0.12383 -10.97188,-0.06423 -13.95479,0.13302l-7.39562,0.49037l35.89471,0.93919l7.40145,-0.49015c2.97159,-0.19749 1.55336,-0.45759 -3.1826,-0.58115l0,0zm-103.98832,4.36872l35.89666,0.93918l58.50561,-3.87996l-35.91375,-0.93942l-58.48853,3.8802l0.00001,0zm-5.48321,1.19326l-0.79283,0.88215l18.73437,-0.41281l17.40955,-0.38294l-34.63066,-0.90663l-0.72043,0.82022l0,0l-0.00001,0z" fill-opacity="null" stroke-opacity="null" stroke-width="1.5" fill="#fff"/>
  <path stroke="#000" id="svg_3" d="m190.30203,21.60619c-16.14052,-10.2074 -38.61088,-6.93202 -50.18115,7.33371l-90.74578,111.92853c-8.26042,10.17998 -5.61086,24.36227 5.92818,31.66112c11.539,7.28523 27.57743,4.94438 35.83784,-5.24902l64.07367,-79.02117l-8.35243,-5.29074l-64.06391,79.02796l0,0c-4.96209,6.10105 -14.59026,7.51365 -21.49456,3.15111c-6.91385,-4.36981 -8.49738,-12.88044 -3.54511,-18.99538l0,0l90.73403,-111.92173l0.01169,-0.0071l-0.01952,-0.00679c8.25065,-10.15895 24.33998,-12.50649 35.84759,-5.22837c11.50766,7.28501 14.16913,21.5022 5.93014,31.66792l0,-0.00676l-99.46078,122.67615l0.00976,0.01393c-11.54861,14.23787 -34.07009,17.52722 -50.19091,7.33369c-16.12066,-10.2145 -19.83052,-30.08928 -8.29166,-44.34109l72.28311,-89.15224l-8.35436,-5.28361l-72.281,89.15225c-14.86864,18.33757 -10.09078,43.8421 10.67472,56.97196c20.76539,13.14372 49.63625,8.9195 64.5049,-9.41097l99.45852,-122.68334c11.53915,-14.25858 7.83909,-34.09875 -8.31299,-44.32002l0,0.00001z" fill-opacity="null" stroke-opacity="null" stroke-width="1.5" fill="#fff"/>
 </g>
</svg>