<svg width="224" height="217" xmlns="http://www.w3.org/2000/svg">
 <!-- Created with Method Draw - http://github.com/duopixel/Method-Draw/ -->
 <g>
  <title>background</title>
  <rect fill="#fff" id="canvas_background" height="602" width="802" y="-1" x="-1"/>
 </g>
 <g>
  <title>Layer 1</title>
  <path stroke="#000" id="svg_1" d="m148.43215,148.26005c-8.14959,-3.13268 -11.40366,-11.74235 -11.40366,-11.74235s-3.67163,1.95014 -3.67163,-3.52685s3.67163,3.52685 7.34327,-17.62043c0,0 10.17978,-2.74541 8.14959,-25.44866l-2.44776,0c0,0 6.11219,-24.27305 0,-32.49545c-6.11939,-8.22241 -8.55994,-13.6994 -22.0154,-17.62043s-8.55275,-3.13959 -18.33657,-2.7385c-9.78382,0.39418 -17.94061,5.477 -17.94061,8.21549c0,0 -6.11219,0.39418 -8.55275,2.74541c-2.44776,2.35124 -6.52255,13.30523 -6.52255,16.05064s2.0374,21.14729 4.07479,25.0614l-2.42616,0.78144c-2.0374,22.70325 8.14959,25.44866 8.14959,25.44866c3.66443,21.14729 7.33607,12.14344 7.33607,17.62043s-3.67163,3.52685 -3.67163,3.52685s-3.25407,8.60967 -11.40366,11.74235c-8.14959,3.12576 -53.38986,19.95784 -57.0687,23.48469c-3.67883,3.53377 -3.26127,19.97167 -3.26127,19.97167l193.99901,0c0,0 0.42476,-16.4379 -3.25407,-19.97167c-3.68603,-3.52685 -48.92631,-20.35893 -57.0759,-23.48469zm-89.77503,-1.18945c-0.71273,-1.24477 -1.06549,-2.14377 -1.06549,-2.14377s-3.11009,1.65278 -3.11009,-2.98745s3.11009,2.98745 6.22018,-14.93034c0,0 8.63194,-2.32357 6.90411,-21.56913l-2.07339,0c0,0 1.0295,-4.087 1.70623,-9.22514c-0.0288,-2.12994 0.0432,-4.39819 0.26637,-6.88774l0.27357,-2.94596c-0.15118,-3.40238 -0.77032,-6.49356 -2.24618,-8.47828c-5.18348,-6.96381 -7.25687,-11.61095 -18.65334,-14.93034c-11.39646,-3.31939 -7.25687,-2.66243 -15.54325,-2.32357c-8.29357,0.33194 -15.20488,4.64023 -15.20488,6.97072c0,0 -5.18348,0.33194 -7.25687,2.32357c-1.95101,1.87407 -5.07549,10.11031 -5.44986,13.03552l0,1.94323c0.33837,4.51575 1.85741,16.93581 3.37646,19.86102l-2.05899,0.66388c-1.72063,19.24555 6.90411,21.56913 6.90411,21.56913c3.11009,17.9178 6.22018,10.29011 6.22018,14.93034s-3.11009,2.98745 -3.11009,2.98745s-2.75732,7.30958 -9.66863,9.95126c-0.43916,0.16597 -1.0007,0.38726 -1.67023,0.63622l0,36.19519l4.13959,0c-0.20878,-8.83788 0.55434,-20.24137 5.37066,-24.85394c2.56294,-2.45497 10.9645,-6.49356 45.72983,-19.79187zm160.75994,-62.62584c-0.28797,-2.61402 -0.91431,-4.94451 -2.10219,-6.54197c-5.17628,-6.97072 -7.25687,-11.61095 -18.64614,-14.93034c-11.40366,-3.31939 -7.25687,-2.66243 -15.55045,-2.32357c-8.28637,0.33194 -15.19768,4.64023 -15.19768,6.97072c0,0 -5.17628,0.33194 -7.25687,2.32357c-1.95101,1.88099 -5.10429,10.17947 -5.45705,13.07702l0.23758,0l0.57594,6.31376c0.14399,1.59746 0.15838,3.01511 0.19438,4.46043c0.64794,4.60565 1.51185,9.33579 2.37576,10.98857l-2.05899,0.66388c-1.72063,19.24555 6.91131,21.56913 6.91131,21.56913c3.11009,17.9178 6.21298,10.29011 6.21298,14.93034s-3.11009,2.98745 -3.11009,2.98745s-0.38156,0.98199 -1.17348,2.3374c34.34057,13.13926 42.67014,17.15019 45.20428,19.59824c4.82352,4.61257 5.57944,16.00915 5.37066,24.85394l3.45565,0l0,-36.6931c-0.11519,-0.04149 -0.27357,-0.10373 -0.37436,-0.14522c-6.90411,-2.6486 -9.66863,-9.95126 -9.66863,-9.95126s-3.11729,1.65278 -3.11729,-2.98745s3.11729,2.98745 6.22018,-14.93034c0,0 5.78822,-1.58363 6.93291,-12.73125l0,-8.48519c-0.0072,-0.12448 -0.0072,-0.22821 -0.0216,-0.35269l-2.08059,0c0,0 1.54785,-6.1547 2.10219,-12.86956l0,-8.13251l0.0216,0z" fill-opacity="null" stroke-opacity="null" stroke-width="1.5" fill="#fff"/>
 </g>
</svg>