<svg width="224" height="217" xmlns="http://www.w3.org/2000/svg">
 <!-- Created with Method Draw - http://github.com/duopixel/Method-Draw/ -->
 <g>
  <title>background</title>
  <rect fill="#fff" id="canvas_background" height="602" width="802" y="-1" x="-1"/>
 </g>
 <g>
  <title>Layer 1</title>
  <path stroke="#000" id="svg_1" d="m101.4624,209.79747c-14.10373,-3.24313 -22.27441,-16.57634 -21.31063,-28.67178c-0.36106,-15.79892 1.32056,-32.42341 -7.39512,-46.95033c-4.96783,-10.84638 -13.43058,-20.42278 -16.96221,-31.72589c-4.39475,-17.53601 1.0337,-37.41129 17.38991,-49.18389c18.44595,-13.70076 47.90274,-15.48649 68.20807,-3.84168c14.3215,8.55102 24.65479,22.6546 24.2709,38.04493c1.68046,11.49998 -3.55559,22.31671 -9.71523,32.20282c-4.41313,7.96001 -9.56702,15.74927 -13.57262,23.79803c-1.05597,16.50295 -0.45035,33.15726 -3.31457,49.51826c-4.77126,12.6779 -22.7523,21.29761 -37.5985,16.80953l0,0.00001zm37.25004,-29.50754c-8.37017,-3.91088 -20.39804,-1.36821 -30.12714,-2.21017c-7.94738,1.37789 -22.06903,-2.82617 -26.29402,3.48009c9.66229,3.27633 21.0175,0.82034 31.30391,1.3624c8.23068,-0.68522 17.70027,0.6498 25.11725,-2.63233l0,0.00001zm-0.62686,-7.35914c1.23181,-9.93594 -16.89446,-4.86581 -24.25802,-6.34491c-9.74616,1.70997 -25.2563,-3.66025 -31.38586,3.97386c3.63219,7.6717 19.83081,2.27628 28.33699,3.97843c9.07099,-0.27863 18.48169,0.28181 27.30688,-1.60738l0.00001,0zm0.11285,-17.40863c2.39289,-19.35546 16.04566,-35.47133 23.95122,-53.17666c6.49988,-21.19836 -6.37294,-45.41651 -29.67903,-54.31468c-23.19763,-9.96578 -54.10439,-2.43724 -67.21414,17.0905c-12.63134,16.13042 -10.22074,38.04715 2.12481,53.73385c8.80886,13.70935 15.83697,29.11579 14.69212,45.07033c18.28513,0 36.57027,0 54.85541,0c0.42322,-2.80108 0.8463,-5.60234 1.2696,-8.40335zm-40.48023,-27.42144c-7.24464,-10.91902 -14.68181,-21.92218 -19.72662,-33.75572c4.53561,-5.0892 5.85504,-10.75803 7.26401,-16.73759c12.7301,-2.16748 -1.62039,12.57493 10.39863,12.90715c10.66871,4.02365 5.98851,-19.52402 14.85228,-11.0362c-6.36272,9.31532 12.49808,18.58231 13.19028,5.25631c-0.91434,-10.06176 11.39997,-8.1766 6.59888,0.95149c0.39626,4.69565 9.21609,6.04183 9.3671,9.81849c-6.3494,11.93813 -11.86838,24.26332 -19.38679,35.69204c-1.69231,-4.42489 6.656,-15.51513 9.32361,-22.02682c5.14752,-5.6288 9.57083,-20.79794 -3.84842,-18.73023c-7.78435,10.52453 -18.25596,-6.63411 -25.87793,3.45208c-6.47025,1.67297 -16.64655,-9.71315 -18.5235,1.23482c4.87312,13.00338 15.013,24.08556 20.31836,36.95472c-1.80025,-0.92005 -2.82536,-2.53419 -3.94989,-3.98054l0,0.00001zm-10.16865,-47.6558c-3.52288,-1.49037 1.48486,7.92308 -0.00007,0l0.00007,0zm21.05621,1.11186c-4.57307,-6.70865 -2.12046,8.13969 0,0zm20.40946,0c-4.57307,-6.70865 -2.12049,8.13969 0,0zm-95.01554,-49.57113c-8.08281,-7.11075 -17.01737,-13.78302 -24.04676,-21.62102c17.56095,12.60052 33.63421,26.7914 49.46,41.01783c4.20245,5.00565 -7.33144,-4.67446 -9.47808,-6.29707c-5.37112,-4.31185 -10.6719,-8.68924 -15.93517,-13.09974l0.00001,0zm124.81486,20.33038c13.66193,-14.75558 26.40882,-30.22473 41.13839,-44.19431c-2.46644,6.0146 -10.4061,13.21151 -15.39826,19.406c-8.33687,8.99059 -16.12966,18.49649 -25.66308,26.55744c-1.18987,1.09019 -2.96664,-1.492 -0.07692,-1.76912l-0.00012,0l-0.00001,0zm-29.59205,-13.99842c4.72031,-11.70329 11.56721,-22.84344 19.20588,-33.31762c-0.17753,5.81055 -8.27891,16.82348 -12.17294,24.02833c-2.20283,2.8993 -4.06085,7.52308 -7.03294,9.28929zm-60.44814,-15.00903c-3.28813,-4.15743 -13.18629,-13.83787 -11.33816,-15.15802c9.5431,9.17178 19.24918,18.63849 26.10448,29.48491c-5.83798,-3.88115 -10.03865,-9.48681 -14.76633,-14.32689l0.00001,0zm37.79039,-3.27194c-0.66547,-3.90439 1.40035,-22.54308 2.54801,-9.88702c0.00408,7.92961 0.95895,16.8564 -1.58735,24.07383c-1.09038,-4.64024 -0.82584,-9.47101 -0.96066,-14.18681z" fill-opacity="null" stroke-opacity="null" stroke-width="1.5" fill="#fff"/>
 </g>
</svg>