<svg width="224" height="217" xmlns="http://www.w3.org/2000/svg">
 <!-- Created with Method Draw - http://github.com/duopixel/Method-Draw/ -->
 <g>
  <title>background</title>
  <rect fill="#fff" id="canvas_background" height="602" width="802" y="-1" x="-1"/>
 </g>
 <g>
  <title>Layer 1</title>
  <path stroke="#000" id="svg_1" d="m9.20402,183.71108l54.98457,-55.78293c-7.40741,-12.39186 -11.75154,-26.88947 -11.75926,-42.43604c0.00772,-45.34809 36.2037,-82.07746 80.87963,-82.09312c44.68364,0.01566 80.89506,36.74503 80.89506,82.08529c0,45.31678 -36.21142,82.04615 -80.89506,82.04615c-15.33179,0 -29.62191,-4.40721 -41.83642,-11.92217l-55,55.79075l-27.26852,-27.68793zm174.14352,-98.2268c-0.0463,-28.0402 -22.39969,-50.71033 -50.03086,-50.77295c-27.61574,0.06262 -49.98457,22.73276 -50.03086,50.77295c0.05401,28.02454 22.41512,50.69467 50.03086,50.7573c27.63117,-0.06262 49.98457,-22.73276 50.03086,-50.7573z" fill-opacity="null" stroke-opacity="null" stroke-width="1.5" fill="#fff"/>
 </g>
</svg>