<svg width="224" height="217" xmlns="http://www.w3.org/2000/svg">
 <!-- Created with Method Draw - http://github.com/duopixel/Method-Draw/ -->
 <g>
  <title>background</title>
  <rect fill="#fff" id="canvas_background" height="602" width="802" y="-1" x="-1"/>
 </g>
 <g>
  <title>Layer 1</title>
  <path stroke="#000" id="svg_1" d="m89.41476,198.33265c-30.95937,-9.77617 -53.15003,-40.83977 -48.10698,-67.34264c3.17999,-16.71207 70.26981,-118.16601 76.12887,-115.12296c1.91232,0.99321 18.92959,24.64637 37.81615,52.56261c30.25428,44.71886 34.33918,53.05754 34.33918,70.09812c0,34.54055 -32.8945,62.83317 -72.39116,62.26381c-11.52568,-0.16617 -24.02942,-1.27269 -27.78606,-2.45893l0,-0.00001zm31.01779,-17.37262c1.02477,-4.47177 -1.36904,-6.65264 -7.30229,-6.65264c-13.52248,0 -32.28036,-14.39259 -36.47115,-27.98366c-4.47044,-14.49798 -16.32357,-16.22222 -18.07434,-2.62922c-3.3731,26.18886 56.16511,62.06274 61.84778,37.26551l0.00001,0z" fill-opacity="null" stroke-opacity="null" stroke-width="1.5" fill="#fff"/>
 </g>
</svg>