<svg width="224" height="217" xmlns="http://www.w3.org/2000/svg">
 <!-- Created with Method Draw - http://github.com/duopixel/Method-Draw/ -->
 <g>
  <title>background</title>
  <rect fill="#fff" id="canvas_background" height="219" width="226" y="-1" x="-1"/>
 </g>
 <g>
  <title>Layer 1</title>
  <path stroke="#000" id="svg_1" d="m113.24999,32.85234c-48.32717,0 -87.49999,38.05584 -87.49999,85.00002c0,46.94659 39.17282,84.99998 87.49999,84.99998c48.32491,0 87.50002,-38.05338 87.50002,-84.99998c0,-46.94418 -39.1751,-85.00002 -87.50002,-85.00002zm7.99455,133.95658l-16.29675,0l0,-15.18173l16.29675,0l0,15.18173zm0,-31.392l0,5.01744l-16.29675,0l0,-6.18215c0,-18.65532 21.85428,-21.61573 21.85428,-34.87472c0,-6.04583 -5.56457,-10.6771 -12.84945,-10.6771c-7.54888,0 -14.16988,5.40329 -14.16988,5.40329l-9.27821,-11.19957c0,0 9.14505,-9.26511 24.9064,-9.26511c14.97169,0 28.87288,9.00639 28.87288,24.19034c0.00699,21.24111 -23.03928,23.69071 -23.03928,37.58757l0,0.00001z" fill-opacity="null" stroke-opacity="null" stroke-width="1.5" fill="#fff"/>
 </g>
</svg>