<svg xmlns="http://www.w3.org/2000/svg" viewBox="0 0 60 60">
  <path d="M39 9c-3.222 0-6.266.751-8.997 2.054a21.239 21.239 0 00-1.557-.672.992.992 0 00-.079-.801l-1.5-2.598a1 1 0 00-1.733 1l.953 1.65A20.765 20.765 0 0021 9C12.269 9 4.771 14.359 1.608 21.957h-.003l-.279.754c-.017.045-.027.091-.044.136a20.7 20.7 0 00-.497 1.543c-.034.12-.062.241-.093.362-.122.47-.236.943-.325 1.425-.049.257-.08.516-.118.774-.053.361-.113.719-.148 1.086a20.113 20.113 0 00.006 4.081c.046.46.13.908.205 1.358.04.238.06.48.108.717l.003.012c1.27 6.222 5.303 11.445 10.754 14.343l.437.219c.175.088.353.165.529.247a21.28 21.28 0 002.048.831 20.19 20.19 0 002.142.614c.251.057.501.113.755.162a20.257 20.257 0 002.184.291c.478.039.958.067 1.442.074h.021c.09.002.176.014.265.014.077 0 .153-.006.23-.007l.203.003.003-.009a20.629 20.629 0 004.65-.621l-.953 1.65a1 1 0 001.732 1l1.5-2.598a.988.988 0 00.079-.801 21.239 21.239 0 001.557-.672A20.833 20.833 0 0039 51c11.58 0 21-9.421 21-21S50.58 9 39 9zM2.499 25.74c.023-.1.052-.198.077-.297.102-.405.21-.808.338-1.209A4.517 4.517 0 016 28.5a4.508 4.508 0 01-3.749 4.439c-.033-.213-.071-.424-.098-.639-.023-.187-.048-.373-.065-.56A19.248 19.248 0 012 30a18.919 18.919 0 01.301-3.259c.059-.334.12-.669.198-1.001zm.162 9.15C5.692 34.34 8 31.687 8 28.5c0-2.798-1.818-5.246-4.386-6.135C6.561 15.682 13.24 11 21 11c2.34 0 4.614.424 6.784 1.264-.067.042-.129.089-.196.132-.208.135-.414.274-.617.416-.431.3-.852.611-1.256.94-.025.021-.052.039-.077.059-.498.409-.968.845-1.423 1.294l-.105.105c-.069.069-.139.136-.206.205A.98.98 0 0024 15a1 1 0 10-1 1 .974.974 0 00.491-.147 20.801 20.801 0 00-3.066 4.351A.983.983 0 0020 21c0 .009.005.016.005.025-.176.373-.341.752-.495 1.135A.979.979 0 0019 22a1 1 0 00-1 1 .99.99 0 00.885.977 21.073 21.073 0 00-.432 1.697c-.01.048-.023.095-.032.143-.03.148-.056.297-.083.446A.984.984 0 0018 27c0 .186.064.35.153.499-.007.062-.011.125-.018.188-.014.128-.025.257-.037.386A21.193 21.193 0 0018 30c0 .29.016.577.027.864-.006.047-.027.088-.027.136 0 .066.025.124.038.187.014.249.038.495.06.741.012.129.023.258.037.386.069.63.162 1.255.286 1.87l.003.021A.981.981 0 0018 35c0 .506.382.908.87.974l.059.201.027.093c.215.69.467 1.366.751 2.026A1 1 0 1020 39c0-.024-.012-.044-.014-.068.186.395.384.785.594 1.167A.996.996 0 0021 42a.982.982 0 00.613-.23c.172.252.345.504.527.749A.978.978 0 0022 43a1 1 0 001 1 .98.98 0 00.306-.062c.242.271.491.536.748.795-.025.087-.054.173-.054.267a1 1 0 001 1 .974.974 0 00.342-.069c.1.085.195.174.296.258.025.021.052.039.077.059.13.106.267.205.4.308A.98.98 0 0026 47a1 1 0 00.998 1c-1.631.55-3.315.87-5.04.957.015-.153.042-.306.042-.457 0-.929-.234-1.804-.642-2.572A.997.997 0 0021 44a.983.983 0 00-.805.438 5.445 5.445 0 00-.734-.565A.99.99 0 0020 43a1 1 0 00-2 0c0 .08.028.151.045.225A5.47 5.47 0 0016.5 43c-2.242 0-4.206 1.399-5.042 3.404A19.051 19.051 0 012.661 34.89zm24.884 12.927c.06-.04.123-.074.173-.125.023.014.044.031.067.045-.08.03-.161.05-.24.08zm-7.835 1.118a16.538 16.538 0 01-1.791-.207 18.345 18.345 0 01-1.236-.241c-.153-.036-.303-.078-.455-.117a18.788 18.788 0 01-1.302-.382c-.087-.03-.173-.064-.259-.095a18.943 18.943 0 01-1.438-.572l-.005-.003C13.715 45.958 15.018 45 16.5 45c1.93 0 3.5 1.57 3.5 3.5 0 .147-.012.296-.035.448l-.255-.013zM39 49a18.862 18.862 0 01-10.069-2.917c-.245-.153-.49-.305-.727-.467a19.176 19.176 0 01-1.19-.89c-.101-.081-.195-.169-.294-.252a19.168 19.168 0 01-1.034-.94c-.064-.063-.129-.125-.192-.189a19.073 19.073 0 01-3.999-5.955v-.001c-.224-.53-.42-1.073-.596-1.626-.021-.067-.044-.133-.064-.2a18.816 18.816 0 01-.442-1.715l-.019-.11a19.329 19.329 0 01-.286-2.001C20.036 31.164 20 30.586 20 30s.036-1.164.088-1.737c.013-.143.029-.286.045-.429a18.9 18.9 0 01.241-1.572l.019-.11c.12-.582.27-1.153.442-1.715.02-.067.043-.133.064-.2.176-.552.372-1.096.596-1.625v-.001a19.062 19.062 0 013.999-5.955c.063-.064.128-.126.192-.189.332-.327.679-.638 1.034-.94.099-.083.193-.171.294-.252.384-.313.782-.608 1.19-.89.236-.163.482-.314.727-.467a18.71 18.71 0 011.439-.823A18.85 18.85 0 0139 11c10.477 0 19 8.523 19 19s-8.523 19-19 19zM39 52a1 1 0 00-1 1v3a1 1 0 102 0v-3a1 1 0 00-1-1zM39 8a1 1 0 001-1V4a1 1 0 10-2 0v3a1 1 0 001 1z"/>
  <path d="M55.264 14.736a.997.997 0 00.707-.293l2.121-2.121a.999.999 0 10-1.414-1.414l-2.121 2.121a.999.999 0 00.707 1.707zM33.306 51.25a1 1 0 00-1.225.707l-.777 2.898a1 1 0 101.931.518l.777-2.898a.998.998 0 00-.706-1.225zM44.694 8.75a1 1 0 001.224-.707l.777-2.898a1 1 0 10-1.932-.518l-.777 2.898a1 1 0 00.708 1.225zM32.082 8.043a1 1 0 001.931-.518l-.777-2.898a1 1 0 10-1.932.518l.778 2.898zM45.918 51.957a1 1 0 10-1.932.518l.777 2.898a1 1 0 001.931-.518l-.776-2.898zM51.366 49.419a1 1 0 10-1.732 1l1.5 2.598a1 1 0 101.732-1l-1.5-2.598zM50 10.947a.998.998 0 001.366-.366l1.5-2.598a1 1 0 00-1.732-1l-1.5 2.598A1 1 0 0050 10.947z"/>
  <circle cx="17" cy="21" r="1" fill="red"/>
  <circle cx="19" cy="19" r="1"/>
  <circle cx="21" cy="17" r="1"/>
  <circle cx="13" cy="18" r="1"/>
  <circle cx="12" cy="35" r="1"/>
  <circle cx="25" cy="13" r="1"/>
  <circle cx="21" cy="13" r="1"/>
  <circle cx="19" cy="15" r="1"/>
  <circle cx="15" cy="27" r="1"/>
  <circle cx="17" cy="25" r="1"/>
  <circle cx="17" cy="29" r="1"/>
  <circle cx="15" cy="31" r="1"/>
  <circle cx="17" cy="33" r="1"/>
  <circle cx="17" cy="37" r="1"/>
  <circle cx="17" cy="41" r="1"/>
  <circle cx="23" cy="47" r="1"/>
</svg>
