<svg version="1.0" xmlns="http://www.w3.org/2000/svg" width="1058.667" height="1497.333" viewBox="0 0 794 1123">
  
  <path class="firstPath" d="M367.5 64c-4.9 1-9.9 2.1-11 2.4-4.9 1.1-16.8 6.1-26.1 11-13.1 7-36.6 21.7-42.8 27-7.6 6.3-15.7 17.2-21.9 29.2-7.5 14.8-8.9 20-9 34.7l-.2 12.2 6.1 12.5c3.4 6.9 6.6 14.8 7.2 17.5 1.9 9.1 2.4 20.8 1.3 29-3.3 23.2-3.8 25.6-5.7 27-1.7 1.3-1.7 1.4-.2 1.5 1.5 0 1.6 1 1.1 8.7-.9 14.5 4.2 29.5 13.1 38.3 6.2 6.2 6.9 5.3 3.7-4.8-11.3-35-10.2-56.9 3.5-72 4.6-5.1 7.3-7 16-11.3 11.8-5.7 13.9-8.1 11.3-12.7-1.6-2.8-2-2.9-13.4-3.1-5.9-.1-6-.2-11.2-5.6-2.8-3.1-6.4-8-7.9-11.1-2.5-5.2-2.6-5.8-1.6-12 2.2-13.6 9-23.2 20-28.6 6.5-3.2 7-3.3 19.7-3.3 12.1.1 14 .3 28 4.2 20.1 5.6 26.4 6.6 35.9 5.8 8.7-.7 10.9-1.3 10-2.6-.3-.5 0-.9.5-.9.6 0 1.1-.7 1.1-1.5 0-1.8-1.2-1.9-2.7-.4-.9.9-2 .6-4.3-1.1-4.7-3.4-16.8-6-27.6-6-15.7 0-32.9-6.5-35.9-13.5-1.3-3.2-1.8-3.5-5.5-3.5-4.5 0-7 1.1-16.2 7-7.6 5-12.6 5.4-15.7 1.3-3-3.8-3.6-7-1.9-10.7 2.3-4.7 9.8-13.7 10.8-13.1.6.4 1-.2 1-1.3 0-1.5 9.8-11.2 11.4-11.2.3 0 4-2.5 8.3-5.6 12.1-8.8 41.3-22.2 55.3-25.3 12.2-2.8 31.5-.4 48.1 6 7.9 3 29.7 13.9 40.2 20.1 2.6 1.5 5.6 2.8 6.6 2.8s4.3.9 7.4 1.9c4.6 1.6 5.7 1.7 5.7.6 0-.7.9-1.7 2-2 2.6-.8 2.6-2.2 0-3-1.2-.4-4.5-3-7.5-5.9-11.1-10.6-38.2-23.5-58.2-27.5-15.2-3.1-37.2-3.6-48.8-1.1z"/>
  
  <path class="secondPath"  d="M413.4 155.3c-2.9 2.5-2.9 2.6-.9 4.2 1.1.8 3.4 2.3 5 3.2 1.7.9 4.1 2.4 5.4 3.4l2.4 1.9h-2.6c-1.4 0-2.8.4-3.1.9-.9 1.4 1.5 7.1 3.4 8.1 2.9 1.6 8 .1 9.1-2.6.4-1.3 1.1-2.4 1.4-2.4 2.4 0 10.5 6.5 10.5 8.4 0 .6 1.3 2.8 2.9 4.9 1.9 2.5 2.7 4.5 2.3 5.9-.4 1.7-.2 2 1.2 1.5 1.2-.5 2.5.6 5 4.6 4.4 6.9 8 14.1 10 20 2.1 6.2 9.8 38.6 9.8 40.9-.1 1 .3 1.8.8 1.8.4 0 1.1 3.4 1.5 7.6l.7 7.5 4.7-.4c6.9-.7 15.1-3.8 16.8-6.3 1.3-2.1 1.3-2.6-.4-5.6-1-1.8-2.1-3.5-2.4-3.8-.4-.3-1.6-2.3-2.7-4.5s-4.5-7.3-7.6-11.4c-3.1-4.1-5.6-8.1-5.6-8.8 0-3.4-9.6-30.5-13.3-37.8-9.2-17.7-22.2-31.2-37.2-38.5-11.1-5.4-13.5-5.8-17.1-2.7zM489.6 323.9c-.3.4-1.7.6-3.1.3-1.9-.3-2.5 0-2.5 1.3 0 1.2.6 1.6 1.9 1.2 1.9-.5 1.8-.1-.6 6.7-1.4 3.9-3.2 8.4-4 10.1-2.9 5.6-11.1 16-18 22.6-11.7 11.2-20.5 16.2-34 19.3-4 .9-9.5 2.5-12.1 3.5-6.6 2.6-22.3 6.8-29.9 8-7.3 1.2-20.9 0-35.8-3-10.2-2.1-14.2-4-20.2-9.2-1.9-1.6-3.6-2.7-3.9-2.4-.3.3.1 2.8 1 5.4 1.8 5.3 7.6 11.7 15.8 17.2 2.7 1.8 8.9 7.1 13.9 11.8 7.9 7.6 9.7 10 14 18.5 2.7 5.4 4.7 9.8 4.4 9.8-.3 0 .1 1 .9 2.2 2.3 3.7 8.5 20.2 11.2 30.1 3.4 12.3 4.2 29.3 2 39.7-2.3 11.1-6.3 18.2-30.7 55-30.9 46.6-38 59.4-45.4 81.5-4.9 14.8-7.9 32.6-7.8 46.8 0 6.3 5.7 17.8 12.3 24.8 2.7 2.9 5 6.3 5 7.4 0 2.1 1.7 4.5 3.2 4.5.4 0 .8-.9.8-2 0-1.5.7-2 2.5-2 3.5 0 3.2-2.7-.7-8-1.8-2.4-3.9-5.1-4.6-6.1-1.2-1.5-.9-2.3 1.8-6 1.8-2.5 4.4-4.8 6.3-5.4 2-.7 3.1-1.6 2.8-2.5-.2-.8-.6-3.6-.8-6.1-.4-3.3-1.1-4.8-2.6-5.5-1.2-.5-4.2-4.9-7-10.4-4.7-9.1-4.9-9.8-4.4-16 .3-5.6 1.4-8.7 7-20.3 11.7-24 24-44.1 40.4-65.9 15.4-20.4 27.9-40 30.7-48.3 3.8-10.7 4.7-30.4 2.2-44-3-15.9-11.5-37.9-20.4-52.5-5.6-9.2-6.4-11.3-5.9-15.6 1-9.5 9.2-14.8 24.2-15.8 10.7-.7 32.4-5.1 38-7.8 5.9-2.7 20.4-11.8 27.3-17.1 3.3-2.6 9.4-8.4 13.6-12.9 7.1-7.7 7.9-9 10.5-17.3 2.8-9 4.6-21.9 3.5-24.9-.7-1.8-2-2.1-2.8-.7zM285 324.3c0 1.6 4 11.4 6.8 16.7 7.3 13.7 28.3 40.3 29 36.7.2-.9.8-1.7 1.4-1.7.7 0 .7-.4-.1-1.3-.6-.8-.8-1.7-.5-2 .4-.3-.1-1.3-1-2.2-.9-.9-1.6-2.5-1.6-3.6 0-2-6.1-12.4-11.4-19.4-7.2-9.5-22.6-25.3-22.6-23.2zM435.8 536.6c-3.5 1.8-10.6 12.6-11.3 17.2-.3 2-1 5.5-1.6 7.7-.5 2.2-1.4 13-1.9 24-1 22.6-1.4 26.4-4.1 42.5-4.7 28.8-5 54.1-.9 85 2.7 20.8 2.9 21.4 5.8 16.1 4-7.1 4.3-12.7 1.7-32.1-1.3-9.6-2.6-19.8-3-22.5-.4-3.5.2-8.8 1.9-17.5 3.2-15.7 5-29.5 7.6-58 3-31.9 5.3-46.6 8.5-54.2 1.6-4 2-8.4.7-9.1-.4-.3-1.9.1-3.4.9zM604.4 667.2c-1.2.6-2.7 2.2-3.4 3.7-3.5 7.4-8.1 23.1-9 30.8-1.8 14.9-2.9 19.4-5.9 26-1.7 3.4-2.7 6.3-2.2 6.3 1.8 0 10.1-6.1 12.4-9.1 7.7-10.4 12.1-27.3 12.9-49.8.3-9-.2-9.9-4.8-7.9z"/>
</svg>
