<svg version="1.0" xmlns="http://www.w3.org/2000/svg" width="1066.667" height="800" viewBox="0 0 800 600">
  <path d="M218 123.9c-8.5 1.2-18.4 4.8-25 9.3-3.3 2.2-6 4.3-6 4.7 0 2.7 3.2 1.8 15.6-3.9 20.7-9.7 31.4-9.4 51.4 1.7 6.6 3.7 16 12.3 16 14.6 0 1.9-2.1 3.7-4.2 3.7-1 0-3.2-.9-5-2-4.3-2.6-6.2-2.5-9.1.4-2.5 2.5-10 4.6-16.5 4.6-4.3 0-13 2.4-11.6 3.2 3 1.8 8 1.7 15.9-.1 18.6-4.5 28.9-1.8 31.5 8.1 1.8 6.5-2.6 12.4-9.5 13-6.1.5-5.7 2.9 1.2 6.6 10.1 5.4 12.9 14.8 8.4 29.1-1.9 6.2-1.6 7.5 1.1 4.3 4.8-5.4 6-13.4 3.8-25.6-1.5-8.4-.8-14 2.6-20.8 5.3-10.4 2-23.3-8.5-33.1-5.1-4.8-19.1-12.8-27.3-15.7-6.4-2.2-17.3-3.1-24.8-2.1z"/>
  <path d="M206.9 161.5c-7.2 3.7-13.3 11.3-16.9 20.8-3.3 9-3 8.4-7.9 15.2-2.9 4.1-3.1 4.9-1.9 6.1.8.8 3.1 1.7 5.1 2.1 3.4.5 3.7.4 3.7-1.8 0-7.2 8.2-29.9 10.8-29.9.4 0 1.3-1.4 2-3 1.6-3.6 5.1-5.8 6.2-4 1.2 1.9 4.5.7 4.3-1.5-.1-1.1.7-2.5 1.8-3.3 5.3-3.7-.4-4.3-7.2-.7zM182.6 225.8c-.7 1.1 1.2 8.8 3 12.3 2 3.9 10.5 10.6 17.9 14 3.6 1.7 9.3 3.2 14.5 3.9 9.3 1.3 11.4 2.1 13 5.1.9 1.6.4 3.3-2.9 9.2-6.2 11.3-8.4 18.9-7.9 27.2.6 8.7 1.7 10.9 13.8 27 12.1 16 20 29.6 20 34.3 0 2.1-1.1 5.1-3 7.9-1.6 2.4-3 4.8-3 5.4 0 .5 1.2 2 2.7 3.3l2.7 2.3-2.3 2.8c-1.9 2.6-2 3-.6 3.8.9.5 1.8.7 1.9.5 6.3-7.5 7.6-10.1 7.6-15.6 0-12.7-5.1-23.9-20.5-45.7-13-18.2-14.5-21.1-14.5-29 0-7.5 1.2-11.9 6.1-22.2 3.5-7.3 4.7-8.8 11.2-13.8 3.9-3.2 7.8-6.8 8.5-8.1 1.5-2.9 1.3-2.9-3-.5-1.8 1.1-6.9 2.5-11.3 3.1-7.6 1.1-8.6 1-19.9-2-6.6-1.7-13.3-3.8-14.9-4.7-7.5-3.8-17.7-16.3-16.3-19.9.6-1.5-1.9-2-2.8-.6zM205.5 312.4c.8 2.5 2.1 10.9 3 18.8.8 7.9 2.2 17.5 3 21.5 1.1 5.3 1.2 8.6.5 13-1.6 9.5-1.1 17.3 1 17.3.9 0 3-15.5 3-22.1 0-2.4-.6-9.6-1.4-15.9-.8-6.3-1.9-16-2.5-21.4-1-10.2-2.9-14.7-6.4-15.4-1.4-.3-1.4.2-.2 4.2z"/>
</svg>
